<svg width="24" height="24" viewBox="0 0 24 24" xmlns="http://www.w3.org/2000/svg">
<path d="M22.5001 18C22.3031 17.9999 22.1079 17.9611 21.9259 17.8856C21.7438 17.8101 21.5784 17.6994 21.4391 17.56L13.7681 9.88899C13.536 9.65678 13.2604 9.47257 12.957 9.34689C12.6536 9.22122 12.3285 9.15653 12.0001 9.15653C11.6718 9.15653 11.3466 9.22122 11.0433 9.34689C10.7399 9.47257 10.4643 9.65678 10.2321 9.88899L2.57014 17.551C2.28724 17.8242 1.90834 17.9754 1.51504 17.972C1.12175 17.9686 0.745528 17.8108 0.467416 17.5327C0.189304 17.2546 0.0315505 16.8784 0.0281329 16.4851C0.0247152 16.0918 0.175907 15.7129 0.449144 15.43L8.11114 7.768C9.14324 6.73782 10.5419 6.15924 12.0001 6.15924C13.4584 6.15924 14.8571 6.73782 15.8891 7.768L23.5611 15.44C23.7707 15.6498 23.9134 15.9171 23.9711 16.208C24.0289 16.4988 23.9991 16.8003 23.8855 17.0743C23.772 17.3483 23.5798 17.5824 23.3332 17.7472C23.0866 17.9119 22.7967 17.9999 22.5001 18Z"/>
</svg>
